PathFileType	4	(X/Y/Z)	6_2_41_p1_0-478_filt_butterworth.trc
DataRate	CameraRate	NumFrames	NumMarkers	Units	OrigDataRate	OrigDataStartFrame	OrigNumFrames
59.0	59.0	6	27	m	59.0	179	478
Frame#	Time	RHip			RKnee			RAnkle			RBigToe			RSmallToe			RHeel			LHip			LKnee			LAnkle			LBigToe			LSmallToe			LHeel			Neck			Head			Nose			RShoulder			RElbow			RWrist			RThumb			RIndex			RPinky			LShoulder			LElbow			LWrist			LThumb			LIndex			LPinky			
		X1	Y1	Z1	X2	Y2	Z2	X3	Y3	Z3	X4	Y4	Z4	X5	Y5	Z5	X6	Y6	Z6	X7	Y7	Z7	X8	Y8	Z8	X9	Y9	Z9	X10	Y10	Z10	X11	Y11	Z11	X12	Y12	Z12	X13	Y13	Z13	X14	Y14	Z14	X15	Y15	Z15	X16	Y16	Z16	X17	Y17	Z17	X18	Y18	Z18	X19	Y19	Z19	X20	Y20	Z20	X21	Y21	Z21	X22	Y22	Z22	X23	Y23	Z23	X24	Y24	Z24	X25	Y25	Z25	X26	Y26	Z26	X27	Y27	Z27	
179	3.0338983050847457	0.2614555776717015	0.44777744791220203	0.7487296384402099	0.29808694803883257	0.4579007362728556	1.1381171271920945	0.2765643213990079	0.5850982345202801	1.5141569820528205	0.27407321055924116	0.35346057990792523	1.5072504048835904	0.3347216883639989	0.43463006744971033	1.5392819138132132	0.25612084813860664	0.6131070383897838	1.5744277762631271	0.061585115614429004	0.4538588811640074	0.7663839669955721	0.061341453112119915	0.4467246245055061	1.1367568728504098	0.1080691700921233	0.5441732943947376	1.5210782932431004	0.10526965674775222	0.40068101542964896	1.5613398347553564	0.060487277316868066	0.3925633554191338	1.522265804037377	0.11950944730538458	0.6311677187901681	1.592105199233612	0.11716044564975983	0.4723988265801622	0.21121658232501744	0.1340061510715133	0.38004667849252577	-0.040866429617001494	0.12838497385854158	0.3404422225780092	0.08470628233786012	0.2679434479956194	0.4532000757513927	0.2501074073794108	0.34171243803844487	0.4498236104150485	0.4884045243148884	0.3179909069820376	0.3529461723501792	0.7060956084389831	0.2674339344263754	0.3697409862728082	0.8237050216674189	0.29689802799764287	0.367550298067673	0.837135860127726	0.3287474538357663	0.3786171207148559	0.8284800698664037	-0.02537540355806027	0.4805529978497227	0.26628418483700944	-0.16646812258700366	0.352248247709861	0.4287770341637027	-0.05589171560195414	0.28052392033947515	0.29934373217834825	0.01871826760637891	0.2611958530968919	0.22675332090315314	0.01623040252763685	0.2267487787280219	0.20165894949410015	-0.0008762990788459926	0.18599961005314114	0.2177038897344987
180	3.0508474576271185	0.26134129224350433	0.4479995022338721	0.7488167113569814	0.29777802344903437	0.45776872662764945	1.1370819605715905	0.2778629694069781	0.5854769583202654	1.5151060848518525	0.27406025588897664	0.3534832059751547	1.5072551205417228	0.3346263918898838	0.43443610944351774	1.5391233180675017	0.2557717601947735	0.6196596176763722	1.579290474408645	0.059262377407699234	0.4489877071314736	0.7661961666381145	0.06131697954831768	0.4467415788905116	1.1367220703119278	0.10830983367830585	0.5441544723271506	1.5227515822396511	0.10698020088545962	0.4006294911493474	1.5645779317070136	0.06039020606110411	0.39241304931895915	1.5225450238092304	0.1216332296187188	0.6271792811631037	1.5910417446370713	0.1188794892415729	0.4733913955398552	0.2112290066400743	0.13401033372542492	0.3800928073500768	-0.04086809061408956	0.12815418173757367	0.3402339962542939	0.08388268190763191	0.270019369998928	0.4524126104446833	0.2501955437504226	0.34171152509941294	0.44981376640857573	0.48896058330295866	0.3179531265545431	0.35294765484288804	0.7060736153385775	0.26740463994426716	0.3694468320345417	0.8235863127295908	0.29635968013925357	0.3673630017190961	0.8342430741576203	0.3283021657253295	0.378324510208958	0.8280071784523115	-0.025416484303246813	0.4805812435788322	0.26615603589350756	-0.16646930761985096	0.35269858265424575	0.43053700630438535	-0.05756758022549009	0.28006947784132696	0.2993978443110732	0.01740278370615441	0.25768799466102477	0.22691220801387896	0.01550475868279021	0.2282178937499683	0.20068303888246425	-0.002045574497645459	0.19297924528161123	0.21840453135410215
181	3.067796610169492	0.2612773559564807	0.44812834851101846	0.748870379850783	0.29770182132888134	0.45803084608065225	1.1361658935921826	0.2785650205763084	0.5856952283562052	1.516214297636046	0.2740555145981667	0.3535250281455348	1.5072959649936275	0.33455404149488394	0.4343048588830665	1.5390115986870503	0.255559843058932	0.6233572876646233	1.5827184393051177	0.057772120762045326	0.446937249726783	0.7661229577791577	0.06129567514039433	0.4467394766468875	1.1366659091909497	0.10849805458592635	0.5443607398916496	1.5240913489829282	0.10818672949549216	0.4004937071369888	1.5666111767956146	0.060343525677329334	0.39232228525345386	1.5226969968628983	0.12236517315004364	0.6234822415250749	1.5888303738359748	0.12042866603036337	0.47412107705679	0.21122746207911092	0.13400693098897046	0.3801223277527	-0.040865684561441476	0.12806708070638795	0.34009128172498426	0.08361585391815747	0.271765480792246	0.4518096636918664	0.25069775121119103	0.3416953255126348	0.4498145232332293	0.49021248388548255	0.31786451495210216	0.35293009514018747	0.7060564964769217	0.26737923843603373	0.3692790732534127	0.8235409439065351	0.2959370070072389	0.3672461676801346	0.8320799788663269	0.3279647433361528	0.3780891628747329	0.8269388515400027	-0.025517860610603352	0.4807721845627318	0.26612783164990894	-0.1668152545398293	0.35391253612487256	0.4336834307921248	-0.05907429356235909	0.280101437137799	0.2999035211684653	0.015905395857464245	0.2546095368470238	0.22720207224613406	0.014223247164632854	0.2314198455789948	0.20174348623001676	-0.0033046624765619556	0.19438225239098278	0.21910974647919487
182	3.0847457627118646	0.26127848047955243	0.44816074252115295	0.7488905842722009	0.29788820736057	0.4586478223904063	1.136005437555014	0.2786107589772279	0.5858993502950944	1.5165087453409491	0.2740684835937648	0.3535399078949535	1.5073755419625285	0.3345270348000554	0.4342621410437239	1.5389603429384047	0.25542772799437813	0.6242553030587917	1.582948253822389	0.05792165110636427	0.4483268106278532	0.7661635144097303	0.061287847157645035	0.44670613928698827	1.1365746204224776	0.10857181835567466	0.5445259829944871	1.52460516146775	0.10859157397989097	0.4004178932339061	1.5672096341917094	0.060349839282593916	0.39230441637473173	1.5226418800262334	0.12117723955156173	0.6219302188829059	1.5870656709862425	0.12113346256146688	0.47438844291960947	0.21122871549935418	0.1339989327709428	0.3801408643902562	-0.04085346989389409	0.12847856123300722	0.3402082977491871	0.08367999572533505	0.2727994596009612	0.45155721331414406	0.2514373423195534	0.34168688634753536	0.449789318336448	0.4913045951766191	0.3178616397462604	0.35293497598838125	0.7060619697223582	0.267348680690725	0.36923430719981604	0.8235336372087358	0.29575953038829045	0.36721503348383305	0.8312726483787263	0.32785247343989155	0.37800407113101714	0.825570488765986	-0.025643398513880554	0.481117372265493	0.26625383274208037	-0.16753906602523255	0.3557621529397458	0.43693187344790796	-0.06053398331528422	0.2779170483617488	0.3011470197846963	0.01484897096581051	0.2519223842363125	0.22743261381050173	0.012892981068304077	0.23432042610398454	0.2048520015591146	-0.0043230413728211434	0.18634944071472456	0.22042683125661658
183	3.101694915254237	0.2613116076216483	0.4481524002283857	0.7488978738012118	0.29807884308128724	0.459196371216983	1.1361882594894728	0.2784142353065873	0.586237507778237	1.5151763253033115	0.274094000307672	0.3535055873085945	1.507468112471222	0.33452462864666166	0.43426486167623674	1.538934017451913	0.25529962626359803	0.6251360788786309	1.5805280447159125	0.05943807092721039	0.45258894360964613	0.7662901569305768	0.06129436379417897	0.4466553379662188	1.1364775573605934	0.10857085676892558	0.544618721497309	1.5245652405108794	0.1084544189131644	0.4002580937907845	1.566719861839251	0.060372737322862184	0.3923050260512056	1.522540251518342	0.11885117012236168	0.6221562498010996	1.5879925178865966	0.12121477673196003	0.4744018819781265	0.2112687314820671	0.1339960023524654	0.3801428968737451	-0.04083431974714762	0.12976357102911978	0.34108929096213003	0.08390706631282582	0.27346615186718004	0.45157126643836165	0.2519324569359417	0.34172818989148607	0.4496519214220634	0.4918675174764956	0.31826173541042035	0.35306840120617744	0.7060873011700248	0.26731720205601295	0.36925027875409955	0.8235173957638813	0.29574689864455633	0.3672140396770933	0.8312977475781839	0.32792327436313795	0.3780402137006839	0.8245524726362963	-0.025597961643591002	0.48118893474211005	0.2664172459590254	-0.16823763170503084	0.35784644290877093	0.43911592410261685	-0.06239249688042296	0.2721029980005447	0.30300679026993765	0.014256913303483333	0.24848444374640288	0.22753372793101254	0.01235844585440598	0.23384100052961126	0.20889833039612524	-0.004847621750441042	0.170571912235314	0.2224381840425816
184	3.1186440677966103	0.2613442583733134	0.44814264369802903	0.7489001882688023	0.29804860424432644	0.45931250335371193	1.135854070792981	0.2782826588637665	0.5866919671746359	1.5129294453458306	0.27410420060482393	0.35347825195536237	1.5074477908988257	0.3345286055316279	0.43428215641790846	1.5389139785896506	0.25520131572624855	0.6266540043628708	1.5777057608169303	0.06146788286491199	0.45787811096889247	0.7665304115690365	0.06131224090178595	0.4466176591071848	1.1364443223701648	0.1085547836054207	0.5446948036749472	1.5243936022930098	0.10813624361280369	0.3998840814068414	1.565529331210821	0.06038697090381966	0.39229457431782333	1.5225246657562348	0.11694549486498541	0.6228196873668292	1.5916277743367484	0.12112636845198892	0.47440622769961655	0.21134236981026502	0.13401673461363586	0.38010818556911913	-0.04078795921483497	0.13169771575444136	0.34310268277907563	0.08410837964362651	0.274007896784695	0.451768703993106	0.25211670095195776	0.34181291901746436	0.44941461404148114	0.49206694562710546	0.3192992108637826	0.35342385450158015	0.7061129556910472	0.267270216113229	0.3692061578294067	0.8234426377545369	0.2957820686042015	0.3672162179394382	0.8314964291494696	0.32796913762530816	0.3779883308173104	0.8241480441645628	-0.024969306519586155	0.47990934113691847	0.2662303113534899	-0.1686866991172172	0.3608817657012489	0.4407380665153762	-0.06438048302036435	0.26508065085575594	0.30484779604726064	0.013844967509312632	0.2445022876708109	0.22796520599683454	0.012767061047658373	0.22949577679128366	0.2125027610703539	-0.004878118882357966	0.15293834085225988	0.22500388872412447
